# xmcd CD database file
# Copyright (C) 1993-1998 Ti Kan
#
# Track frame offsets:
#	187
#	13387
#	25537
#	41587
#	55275
#	76987
#	86887
#	104400
#	115537
#	141187
#	152662
#
# Disc length: 2236 seconds
#
# Revision: 0
# Processed by: cddbd v1.4PL0 Copyright (c) Steve Scherf et al.
# Submitted via: CDmax 1.5
#
DISCID=8608ba0b
DTITLE=Rory Block - Blue Horizon
DYEAR=1989
DGENRE=Blues
TTITLE0=Love My Blues Away
TTITLE1=Elder Green Is Gone
TTITLE2=Justr Like A Man
TTITLE3=Swing Low
TTITLE4=Ecstasy
TTITLE5=Feel Just Like Goin' On
TTITLE6=Ain't No Way To Do
TTITLE7=Frankie And Albert
TTITLE8=No Place Like Home
TTITLE9=Catastrophe Rag
TTITLE10=Midnight Light
EXTD=
EXTT0=
EXTT1=
EXTT2=
EXTT3=
EXTT4=
EXTT5=
EXTT6=
EXTT7=
EXTT8=
EXTT9=
EXTT10=
PLAYORDER=
